<svg xmlns="http://www.w3.org/2000/svg" height="2666.667" width="6010.347" xmlns:v="https://vecta.io/nano"><style><![CDATA[.B{fill:#f37a50}.C{fill:#2c2858}.D{fill:#fff}.E{fill:#de623c}.F{fill:#201d40}.G{fill:#cdd8fa}.H{fill:#95a6db}.I{fill:#e62552}.J{fill:#0e6a41}.K{fill:#7f99eb}.L{fill:#c4204a}.M{fill:#3f964f}.N{fill:#494c7f}]]></style><g transform="matrix(.133333 0 0 -.133333 0 2666.6667)"><path d="M45077.65 0H0v20000.013h45077.65V0" class="D"/><path d="M3155.348 943.8C317.814 3663.29-571.3 5251.888 1863.66 8143.986c1199.46 1424.602-1653.94 2829.846 226.513 3906.684 1554.81 890.36 3264.898-309.628 5237.322 2424.09 3145.807 4359.953 7134.986 364.053 11227.9 2330.3 6241.28 2998.32 13196.37 638.614 17684.256-2963.946 870.31-698.653 2500.03-633.442 3782.678-921.72 3839.095-968.845 3558.948-2706.836 2795.94-5191.406-334.35-1088.287 651.833-1443.906 1115.61-1997.812C45360.336 3959.59 43847.596 2269.9 42334.027 772.4L3155.348 943.8" fill="#e3eaff"/><g class="G"><path d="M29697.32 6842.312l189.22-431.705L27597.56 5266.2l2099.76 1576.102"/><path d="M30037.477 5902.9l-189.07-439.8-2148.877-143.7 2337.948 583.5"/></g><path d="M27597.604 5266.195l3696.114 723.902-1163.435 595.8-2532.68-1319.712m2099.693 1576.098l-2099.763-1576.088L28973.63 7270.8l723.667-428.497" class="D"/><path d="M31429.315 6861.1c-35.884 0-67.62 25.886-73.842 62.392-6.845 40.903 20.535 79.504 61.396 86.41 142.912 24.185 282.506 39.783 414.84 46.38 41.277 2.116 76.538-29.786 78.612-71.083s-29.66-76.517-71.145-78.612c-126.526-6.306-260.312-21.198-397.21-44.388-4.356-.81-8.504-1.1-12.653-1.1zm1213.614-49.22c-7.675 0-15.764 1.203-23.438 3.713-118.23 39.1-247.452 66.395-383.727 81.1-41.277 4.5-70.938 41.4-66.582 82.595 4.563 41.11 41.484 70.896 82.553 66.395 146.853-15.785 286.447-45.383 414.633-87.697 39.4-13.005 60.774-55.402 47.707-94.687-10.37-31.507-39.617-51.42-71.145-51.42zm-2003.47-158.282c-31.113 0-60.152 19.394-70.938 50.403-13.482 39.1 7.052 81.786 46.255 95.392 133.578 46.504 266.95 87.407 396.172 121.693 39.825 10.703 80.894-13.192 91.68-53.203 10.578-39.99-13.275-80.998-53.307-91.597-125.697-33.395-255.334-73.2-385.386-118.5-8.09-2.8-16.386-4.2-24.476-4.2zm2675.096-288.604c-21.157 0-42.106 8.898-57.04 26.405-84.627 99.396-181.7 185.6-288.73 256.392-34.432 22.9-43.973 69.403-21.157 103.897s69.278 43.994 103.917 21.198c118.644-78.59 226.503-174.295 320.05-284.394 26.965-31.61 23.23-78.903-8.504-105.7-14.105-11.99-31.32-17.797-48.536-17.797zm-3428.03-29.308c-27.587 0-54.137 15.204-67.204 41.505-18.46 37.107-3.32 82.097 33.81 100.495 122.793 61.2 249.11 119.412 375.638 172.802 37.958 16.2 81.93-1.7 98.1-39.804 16.18-38.082-1.66-82.097-39.825-98.193-123.415-52.29-247.037-109.103-367.133-168.902a74.44 74.44 0 0 0-33.395-7.903zm3791.845-694.898c-33.602 0-64.093 22.816-72.597 56.895-31.32 126.92-76.953 250.5-135.238 367.403-18.668 37.107-3.526 82.097 33.602 100.516 36.92 18.502 81.93 3.485 100.6-33.602 63.056-126.713 112.422-260.706 146.44-398.205 10.164-40.094-14.312-80.81-54.55-90.808-6.015-1.493-12.238-2.2-18.253-2.2zm25.72-811.095c-4.148 0-8.504.31-12.86 1.1-40.862 7.115-68.034 45.902-60.98 86.702 19.497 112.007 29.246 225.113 29.246 336.31 0 18.48-.207 37.087-.83 55.485-1.037 41.4 31.32 75.895 72.804 77.202 41.484 1.203 75.916-31.403 77.16-72.804.622-19.892.83-39.887.83-59.882 0-119.806-10.578-241.5-31.528-362-6.223-36.402-37.958-62.102-73.842-62.102zm-282.3-762.497c-12.86 0-25.72 3.298-37.543 10.1-35.884 20.804-47.914 66.706-27.172 102.507 67.204 115.7 124.245 235.9 169.67 357.302 14.312 38.788 57.455 58.492 96.243 43.994s58.492-57.6 43.973-96.41c-48.12-129.285-108.895-257.2-180.248-380.2-13.897-23.895-39.202-37.294-64.922-37.294zm-510.46-634.498c-20.12 0-40.032 7.903-54.966 23.708-28.002 30.283-26.55 77.7 3.734 105.992 98.317 91.804 189.582 189.706 271.513 290.907 25.927 32.192 73.22 37.2 105.37 11.2 32.15-26.114 37.128-73.2 10.993-105.41-86.08-106.593-182.115-209.702-285.617-306.297-14.312-13.503-32.772-20.1-51.025-20.1zm-660.218-478.6c-26.342 0-51.648 13.793-65.545 38.3-20.12 36.09-7.26 81.786 28.83 101.988 117.815 66.105 231.273 138.41 337.265 214.804 33.602 24.29 80.48 16.697 104.747-16.905 24.06-33.498 16.594-80.396-17.008-104.602-110.555-79.794-228.784-155.192-351.784-223.993-11.616-6.513-24.06-9.604-36.506-9.604zm-748.786-324.592c-31.528 0-60.98 20.182-71.352 51.896-12.653 39.285 8.92 81.6 48.12 94.397 129.223 41.9 255.54 89.398 375.845 141.398 37.958 16.407 82.138-1.1 98.524-39.1 16.594-38.103-1.037-82.2-39.202-98.607-124.452-53.7-255.334-102.984-388.705-146.293-7.882-2.5-15.557-3.692-23.23-3.692zm-792.76-198.605c-34.017 0-64.922 23.5-72.804 58.306-9.334 40.28 15.97 80.5 56.21 89.688l398.66 89.21c40.24 9.5 80.686-15.62 90.02-55.9 9.334-40.302-15.764-80.603-56.003-90l-71.56-16.2-327.724-73.22c-5.6-1.286-11.2-1.888-16.8-1.888zm-794.833-191.51c-33.602 0-64.093 22.61-72.597 56.5-10.37 40.198 14.105 80.915 54.137 91.1l397.832 98.4c40.24 9.707 80.686-15.1 90.435-55.298 9.54-40.302-15.142-80.8-55.38-90.394l-395.965-97.902c-6.223-1.597-12.445-2.406-18.46-2.406zm-789.855-212.193c-32.565 0-62.64 21.5-71.975 54.512-11.408 39.783 11.823 81.288 51.648 92.592l395.135 109.207c40.032 10.703 81.1-13.005 91.68-53.017 10.786-39.887-12.86-81.1-52.892-91.804l-393.06-108.59c-6.845-1.902-13.7-2.902-20.535-2.902zm-782.388-237.5c-31.528 0-60.98 20.1-71.145 51.8-12.86 39.402 8.712 81.6 48.12 94.403l391.402 122.797c39.617 12 81.516-10.298 93.546-49.9 12.03-39.7-10.37-81.5-49.988-93.5l-388.705-121.897c-7.675-2.5-15.557-3.705-23.23-3.705zm-770.773-272.7c-30.076 0-58.285 18.102-69.9 47.802-14.934 38.6 4.148 82 42.73 97 120.304 46.898 250.15 94.8 385.8 142.597 38.995 13.8 81.723-6.7 95.62-45.796 13.7-39-6.845-81.802-45.84-95.602-133.993-47.198-262.386-94.598-381.238-140.898-8.92-3.5-18.046-5.103-27.172-5.103zm-744.43-337.2c-26.135 0-51.855 13.9-65.545 38.5-20.12 36.2-7.052 81.8 29.04 101.897 105.577 58.602 230.858 120.403 372.734 183.602 37.75 16.8 82.138-.2 98.94-38 17.008-37.802 0-82.103-37.958-99.002-137.934-61.398-259.275-121.1-360.703-177.597a75.13 75.13 0 0 0-36.506-9.402" class="G"/><path d="M24809.154 19197.78l30.174-2090.568c1.22-79.703-62.33-145.08-141.88-146.3l-3633.273-52.577c-79.55-1.067-144.93 62.482-145.995 142.185l-30.327 2090.416c-1.067 79.703 62.33 145.08 142.033 146.3l3633.12 52.577c79.55 1.067 144.93-62.33 146.148-142.033" class="K"/><path d="M24809.208 19197.686l1.674-115.53-1638.28-1212.84c-158.91-122.532-379.165-127.708-543.556-12.482l-1740.1 1218.17-1.065 66.06c-1.065 79.608 62.56 145.06 142.168 146.125l3632.892 52.666c79.608 1.065 145.06-62.56 146.278-142.168" class="G"/><path d="M42528.654 674.905H2484.134c-127.26 0-230.44 103.2-230.44 230.5h0c0 127.2 103.18 230.397 230.44 230.397h40044.52c127.228 0 230.32-103.2 230.32-230.397h0c0-127.3-103.094-230.5-230.32-230.5" class="H"/><path d="M29361.932 12557.85l41.812 277.683s-194.4 30.37-184.12 167l204.66 2.44s110.032 100.862-16.32 407.832c-29.342 288.686 161.196 143.903 187.054 235.284 38.328 134.825 279.847-135.412 287.182-421.036 9.72-369.614-186.87-668.534-186.87-668.534l-333.396-.68m-5228.48-2879.362l-185.073 167.8s11.993 344.368-188.774 320.427c-54.04-6.47 99.05-195.925-11.993-206.63-23.097-2.295-98.755 77.85-203.58 206.63-77.88 149.746-235.708 151.478-305.444 122.962-129.847-53.08-146.28-310.285 52.7-515.286 257.473-265.305 608.666-333.708 608.666-333.708l233.487 237.796" class="B"/><path d="M26194.26 1686.405c-274.07-385.7-947.446-149.006-925.153-670.708h1449.527c-1.3 119.8-21.637 404.202-45.24 515.6l-479.132 155.107m1532.285-10.107c-274.2-385.698-947.53-149-925.345-670.697h1449.632c-1.387 119.8-21.665 404.198-45.236 515.498l-479.05 155.2"/><path d="M25720.483 7575.015s-166.397-2472.11-98.876-3021.817c67.687-549.6 306.747-1254.196 279.706-3072.094 333.79-85.3 817.384 0 817.384 0s71.668 2055.598-281.2 2973.7c143.503 891.906 604.038 2934.604 604.038 2934.604l-1321.054 185.608" class="J"/><path d="M26216.665 7507.488s335.628-2775.493 499.972-3301.895 446.52-933.6 743.97-2724.394l826.576-38s-171.98 2271.603-706.138 2788.304c-18.222 904.392 86.423 3258.093 86.423 3258.093l-1450.803 17.892" class="M"/><path d="M27512.16 10841.1s24.54-19.1 1407.762 219.085c.36.054.902-.054 1.083-.325l489.342-417.096c.54-.505.722-1.39.18-1.967-364.842-403.33-1936.98-649.967-1936.98-649.967l38.613 850.27" class="H"/><path d="M26924.177 11144.247l-485.957 78.344-481.992-100.313 496.528-584.27 471.42 606.24" fill="#607edb"/><path d="M26745.692 10860.244c-192.306-150.104-395.77-214.327-607.275-62.22l-29.207 748 634.02 7.548 2.46-693.337" class="B"/><path d="M25813.116 10868.557h0l148.656 47.665-5.796 206.004 380.505-349.75 112.344-25.657 111.15 30.72 364.14 366.662 3.58-206.056 126.153-34.198 534.445-73.356V8454.8l199.458-1098.8c-625.65-162.6-1557.478-171.295-2224.043-33.686l110.3 1001.194-232.2 2407.22 371.3 137.848" class="H"/><path d="M26426.155 10482.087s66.75-1452.875 176.097-2196.66l-194.54-235.503s-193.56 183.392-245.948 216.5c-118.976 1311 95.474 2208.82 95.474 2208.82l168.916 6.855" class="I"/><path d="M26548.136 10734.698l-204.893 52.9-150.168-59.92 64.01-252.5 181.44.57 109.613 258.95" class="L"/><g class="D"><path d="M26343.306 10787.608s164.92-218.53 315.242-305.27l385.923 409.2-118.63 252.858-582.535-356.788"/><path d="M26343.245 10787.59s-130.585-189.736-300.604-315.295l-300.604 376.547 213.978 273.388 387.23-334.64"/></g><path d="M29746.033 12600.675c-219.902 50.75-335.236 72.03-500.938 56.262-280.67-1205.06-518.092-1671.6-369.727-1995.776 123.73-270.25 428.854-218.642 559.335 5.073 171.907 295.124 247.458 1361.42 311.33 1934.44m-4284.183-1867.282c-327.883-12.168-711.904-1548.28-711.904-1548.28l-639.773 682.706-362.38-503.695s941.156-1161.015 1302.282-1052.614c337.292 101.1 509.466 1312.914 509.466 1312.914l-97.7 1108.97" class="H"/><path d="M26941.395 11580.368c311.964-37.044 475.105 361.47 475.105 361.47 191.1 31.588 158.88 221.937 158.88 221.937 90.69 27.804 211.556 125.16 172.688 298.207-33.072 146.504-176.78 139.617-195.2 311.197-14.83 137.673 83.872 475.14-355.605 501.205 0 0-10.74 255.913-274.8 317.027-323.556 74.922-403.678-119.586-545.5-154.516-158.368-39.004-499.142 106.664-543.465-260.14 0 0-226.216-5.32-330.204-169.978-96.828-153.408-39.9-349.434 25.23-421.492 0 0-181.553-61.813-223.148-233.666-27.787-115.24 17.047-264.112 131.945-336.34 72.962-45.96 142.174-50.22 142.174-50.22 74.155-12.07 78.93-210.448 144.22-248.77 104.67-61.523 218.545-104.926 334.296-139.26l883.386 3.34" class="C"/><path d="M25742.02 12342.325c-36.08-538.123 259.415-996.082 659.645-1022.842s754.023 387.802 789.937 925.942c36.08 538.14-283.97 885.718-684.367 912.478s-729.3-277.438-765.215-815.578" class="B"/><path d="M26757.865 12065.577c42.487-2.85 79.2 29.33 82.175 71.866 2.8 42.553-29.478 79.343-71.965 82.192-42.487 2.832-79.376-29.346-82.175-71.883s29.313-79.343 71.965-82.175m-614.008 41.018c42.48-2.832 79.33 29.35 82.227 71.88 2.736 42.545-29.286 79.346-71.928 82.194-42.48 2.832-79.33-29.334-82.227-71.896-2.736-42.53 29.447-79.33 71.928-82.178"/><path d="M26017.844 12262.082c12.575-.838 25.472 4.804 33.05 16 21.12 30.808 45.462 48.5 72.385 52.572 46.268 7.06 89.474-26.455 89.957-26.778 15.96-12.623 39.175-9.98 52.072 5.98 12.575 15.96 10.156 39.127-5.804 51.9-2.74 2.2-67.87 53.878-146.544 42.35-48.203-7.077-89.635-35.354-123.167-84.04-11.607-16.88-7.255-39.965 9.512-51.556 5.804-3.918 12.252-6.013 18.54-6.45m895.42-63.655a37.24 37.24 0 0 1 23.816 6.582c16.704 11.726 20.84 34.814 9.096 51.634-44.5 63.938-96.1 100.588-153.313 108.9-73.762 10.717-128-31.655-130.324-33.474-15.877-12.768-18.523-36.104-5.8-52.097 12.735-15.927 35.9-18.6 51.93-6.037 1.158.86 33.243 24.477 74.424 18.077 35.9-5.574 70.3-31.72 102.374-77.764 6.615-9.6 17.035-15.083 27.785-15.8" class="C"/><path d="M26374.674 12066.92c-104.284-65.177-137.48-92.592-177.476-113.967 20.727-90.73 157.235-144.232 197.556-136.62-93.92 54.393-103.312 120.2-103.312 120.2l83.233 130.387" class="E"/><path d="M27062.138 12156.888c-74.735-111.614-68.17-246.996 14.476-302.424 82.646-55.412 210.403-9.88 285.137 101.717s68.34 247.013-14.307 302.407c-82.814 55.428-210.402 9.897-285.306-101.7" class="B"/><path d="M27136.06 11945.305c3.186-.218 6.37.184 9.557 1.29 12.9 4.46 19.785 18.544 15.425 31.438-14.922 42.89-13.078 76.457 5.365 99.796 28.504 36.032 90.708 43.6 135.14 39.134 13.413-1.375 25.653 8.55 26.995 22.132s-8.55 25.704-22.132 27.062c-59.7 5.986-137.99-6.02-178.734-57.66-20.455-25.737-39.234-72.064-13.413-146.61 3.353-9.674 12.072-15.945 21.797-16.582" class="E"/><path d="M26677.502 11691.63c12.28 17.438-1.965 41.066-23.087 38.053-53.707-7.614-142.455-18.372-227.6-20.27-84.982-1.883-174.057 4.896-228.09 10.136-21.286 2.047-34.386-22.203-21.45-39.052 40.28-51.84 122.806-130 253.144-127.096 130.174 2.898 209.097 84.654 247.085 138.23" class="D"/><path d="M27445.94 12628.635l-856.55 718.124-969.7-470.706 104.9-694.87c30.814 319.484 224.787 212.41 327.836 303.96 104.564 92.81 152.047 240.01 390.978 104.396 0 0 198.688 131.067 295.507-61.088 74.93-148.595 181.177-122.463 286.246-132.262 123.928-11.55 91.935-131.572 167.875-129.164l252.907 361.613" class="C"/><path d="M22084.97 12753.862c-84.873-58.565-204.695-91.835-224.25-191.27l-259.613 83.64c4.715 329.342 306.487 622.585 340.603 647.534 88.618 64.778 126.2 100.683 141.178 92.598 14.84-8.1 88.063-77.55-37.86-175.932-157.96-123.482 37.583-191.326 304.823 147.322 66.845 84.8 255.314 141.123 234.65 42.243-22.883-108.935-113.858-379.67-499.533-646.133" class="B"/><path d="M19410.64 1633.003c278.34-371.202 961.752-143.407 939.005-645.504h-1470.937c1.25 115.3 21.872 389 45.744 496.198l486.188 149.306m-1554.646-9.696c278.222-371.202 961.54-143.498 938.914-645.504h-1471.116c1.385 115.3 21.935 388.997 45.947 496.106l486.254 149.397"/><path d="M19891.843 7299.624s168.73-2379 100.18-2907.91c-68.55-528.898-311.247-1206.908-283.802-2956.313-338.69-82-829.5 0-829.5 0s-72.735 1978.108 285.402 2861.6c-145.593 858.21-612.894 2823.913-612.894 2823.913l1340.612 178.7" class="F"/><path d="M19250.626 7234.6s-340.724-2670.806-507.484-3177.404-367.77-876.896-669.756-2600.31c-348.047-16.794-823.053-57.988-823.053-57.988s73.46 2186.103 615.666 2683.195c18.424 870.305-87.632 3135.313-87.632 3135.313l1472.26 17.196" class="C"/><path d="M19647.23 10821.687s51.863 22.66 1364.66 340.13c.528.08.924 0 1.188-.238l496.852-370.956c-324.24-410.665-1755.412-850.1-1755.412-850.1l-107.156 880.992c0 .066-.132.172-.132.172" class="F"/><path d="M19044.594 10837.67l-471.675 44.025-456.37-127.26 514.204-529.113 413.84 612.348" class="H"/><path d="M18881.105 10594.837c-192.17-157.814-408.318-186.946-639.873-55.96l-61.277 627.85 664.893 52.415 36.256-624.304" class="B"/><path d="M17995.58 10501.744h0l139.737 55.322-18.64 197.4 387.657-311.392 109.523-17.434 104.65 36.634 326.134 375.425 16.7-197.617 123.412-24.73 444.794-72.025 52.873-2468.808 175.554-839.907c-590.257-196.3-1250.2-245.3-1899.055-155.903l21.807 843.208-460.997 2412.78 475.86 167.038" class="H"/><g class="C"><path d="M18699.152 10176.273l278.612-1884.946-154.267-214.402-201.188 154.605-68.46 1929.107 145.302 15.636"/><path d="M18715.66 10398.765l-101.845 26.833-103.797-45.274 43.976-223.486 145.936 13.1 15.73 228.836m328.913 438.923l76.444-2292.78 301.42-1466.198s578.436-33.304 871.4 245.406l-365.662 1188.496-280.877 2308.9-602.714 16.185"/></g><path d="M19044.667 10837.72l75.96-2262.18 346.953 1721.543-422.912 540.637" class="N"/><path d="M18080.922 10676.242l612.407-3691.428s-963.223-92-1304.404 81.7l220.65 1113.8-116.06 2199.322 587.406 296.605" class="C"/><path d="M18080.9 10676.25l361.725-2163.627-647.642 1632.41 285.917 531.216" class="N"/><path d="M18017.89 4950.914h-1979.32c-30.603 0-55.55 24.893-55.55 55.495v1147.11c0 30.592 24.948 55.495 55.55 55.495h1979.32c30.714 0 55.55-24.904 55.55-55.495V5006.41c0-30.603-24.837-55.495-55.55-55.495" class="H"/><path d="M17987.05 6020.884c0-61.4-49.768-111.3-111.233-111.3s-111.233 49.9-111.233 111.3c0 61.498 49.768 111.3 111.233 111.3s111.233-49.8 111.233-111.3m-144.527-205.26c18.72 24.392 53.628 28.995 78.075 10.296 24.337-18.698 28.962-53.595 10.24-77.998s-53.628-29.006-77.965-10.307c-24.447 18.7-28.962 53.606-10.35 78" class="N"/><path d="M21985.44 12612.4c-206.097 68.667-314.54 99.568-474.643 99.568-378.878-1128.81-648.908-1554.1-536.283-1878.177 93.876-270.165 390.882-248.57 536.283-46.13 191.53 267.035 361.21 1281.63 474.643 1824.738" class="F"/><path d="M16897.956 6606.2l-6.29-270.093s192.827 5.694 199.537-126.003l-180.978-5.6s-110.202-142.308 47.71-420.003c63.017-272.002-136.415-156.904-150.15-247.298-20.132-133.406-283.42 95.302-325.257 367-54.105 351.7 17.72 393.895 17.72 393.895l79.584 267 318.127 41.103" class="B"/><path d="M17500.094 10379.648c-313.803-32.7-1217.27-1867.023-1217.27-1867.023l179.547-2056.613 508.592 82.1 150.686 1738.4 497.998 983.998-119.554 1119.13" class="F"/><path d="M17863.016 11604.1c184.694-461.46 628.196-717.965 990.694-572.918 362.38 145.035 506.452 636.688 321.878 1098.137-184.694 461.437-628.196 717.99-990.575 572.966-362.498-145.023-506.7-636.747-321.996-1098.184" class="B"/><path d="M19017.944 11977.886c21.383-30.782 63.68-38.42 94.46-17.036 30.665 21.5 38.3 63.797 16.918 94.58s-63.68 38.3-94.46 16.918-38.3-63.68-16.918-94.46m-508.56-207.585c23.23-33.3 69.006-41.54 102.307-18.3 33.3 23.116 41.54 68.9 18.3 102.307-23.116 33.3-68.9 41.54-102.307 18.3-33.3-23.116-41.426-69.006-18.3-102.307"/><path d="M18902.37 11885.674l206.577-159.564s1.172-110.698-128.143-158.673c46.662 42.44 87.813 98.915 39.158 164.066l-117.592 154.17" class="E"/><g class="C"><path d="M18375.612 11814.5c15.243 0 29.12 10.465 32.874 26.05.9 3.64 23.66 91.798 99.305 92.253 18.655 0 33.784 15.243 33.67 34.012-.114 18.655-15.357 33.784-34.012 33.67-103.287-.455-152.996-94.528-164.827-144.238-4.323-18.2 6.825-36.514 25.025-40.837 2.616-.57 5.346-.9 7.963-.9m571.295 306.953a28.15 28.15 0 0 1 24.191 13.857c.587.822 18.8 29.945 49.086 35.347 21.255 3.875 45.446-4.932 71.633-25.835 12.213-9.747 29.945-7.868 39.692 4.345s7.75 29.945-4.345 39.692c-39.8 31.824-79.383 44.4-117.666 37.226-56.015-10.334-85.725-60.007-87.016-62.12-7.868-13.387-3.288-30.767 10.1-38.635 4.462-2.583 9.394-3.875 14.327-3.875m-975.303-485.048c-.12 180.453 157.076 142.237 173.723 380.205 16.647 238.052 39.24 418.553 265.044 379.313 225.804-39 298.22-9.037 371 67.777 72.533 76.814 356.364-249.943 356.364-249.943s244.116 350.062 3.805 541.384c-266.47 212.13-318.433 39.834-560.884 188.468s-591.206 47.92-661.955-100.12c-74.674-156.125-87.872-267.78-299.05-377.292s-316.65-291.68-119.502-517.483c197.148-225.77-127.35-389.884 203.57-598.03 128.42-80.738 308.683-100.916 343.998-54.7 47.325 61.88-75.982 224.116-76.1 340.43"/><path d="M19237.068 11912.862s21.31-267.447-17.144-350.132c-40.24 107.258-126.318-6.43-207.157-17.12-195.61-25.86-548.49 39.324-583.493-253.982-238.826-75.648-462.77 435.9-462.77 435.9-29.883-597.256 404.552-896.004 1006.38-800.925 396.456 62.635 433.245 614.7 264.185 986.26"/></g><path d="M19126.338 11392.437c9.862 16.283-4.226 36.51-22.893 32.58-47.43-10.002-126.088-24.89-201.693-31.64-75.723-6.762-155.672-6.034-204.16-4.6-19.136.575-29.35-21.848-16.67-36.1 38.977-43.825 117.165-108.63 233.156-98.287 115.99 10.366 181.618 88.003 212.26 138.04" class="D"/><path d="M17981.592 11698.08c109.09-51.985 163.08-166.53 120.556-255.806s-165.528-119.554-274.62-67.57c-109.09 51.874-163.08 166.42-120.556 255.806 42.634 89.276 165.528 119.554 274.62 67.57" class="B"/><path d="M17982.86 11439.116a26.74 26.74 0 0 1 7.405 9.616c25.3 55.484 16.9 109.75-22.437 145.01-40.342 36.252-101.904 43.326-146.556 16.8-12.6-7.405-16.69-23.652-9.284-36.252 7.516-12.49 23.652-16.69 36.252-9.174 24.426 14.48 61.452 9.837 84.22-10.6 21.884-19.784 25.42-49.515 9.726-83.778-5.968-13.263-.22-28.958 13.042-35.036 9.395-4.3 20.005-2.653 27.63 3.426" class="E"/><g class="D"><path d="M18613.785 10425.615s-100.035-171.91-291.997-279l-274.068 457.968 68.86 149.835 497.205-328.813"/><path d="M18613.817 10425.6s175.58-177.246 336.947-222.592l192.608 508.368-98.77 126.264-430.785-412.04"/></g><g class="K"><path d="M36604.9 17429.686l-179.207-512.918-2830.705 830.55 3009.912-317.632"/><path d="M36154.867 16369.66l-504.837-223.05-1927.077 1565.506 2431.914-1342.455"/></g><g class="G"><path d="M33594.996 17747.32l3688.81-2290.186-514.654 1416.2-3174.156 873.996"/><path d="M36604.9 17429.686l-3009.912 317.632 2735.263 612.268 274.65-929.9"/></g><path d="M13214.4 10124.2c332.8 116 1040.1 473.1 705.1 954.7-335.1 481.5-477.5 279.7-348.6 858.8 128.8 579.1-278.8 1040.2-673.5 928.9-394.7-111.2-498.6-428.4-980-342.6-481.4 85.9-887.2-360.7-710-753.8 177.3-393.2 252.7-582.4 80.6-797-172.1-214.7-939.5-439.5-626.2-961.6 313.3-522.2 459.9-492 346.1-756.7-113.7-264.6 138.6-570.1 582.4-533.7 443.9 36.5 847.1 199.7 1015.2 693 168 493.3 608.9 710 608.9 710" class="C"/><g class="B"><path d="M12464.2 1683.9l-27.5-282.9 236.6-71.8 190.1 202.9 31.2 116.8-430.4 35"/><path d="M13210.8 7389.7s355.2-2299.7 259.4-3285.3c-95.8-985.5-577.6-2460-577.6-2460h-432.2l24.2 765.9c21.5 749.4 0 1364.7 327.3 1751.2-169.5 731.1-603.2 3228.2-603.2 3228.2h1002.1"/><path d="M12772 6996.5s-114.9-2116.7-463.8-3043.4c-894-609.4-1706.7-904.7-2247.6-1117.5-25.5-10-132.9 392.4-132.9 392.4 600.7 392.9 1128 1101.2 1740.8 1010.1-104.8 677.9-206.3 2420.1-206.3 2420.1l1309.8 338.3m-479.5 3762.7v-869.7s289.8-154.6 541 0c-38.6 193.3-61.5 808.9-61.5 808.9l-479.5 60.8"/></g><path d="M11773.8 10290h1442.8s259.1-581.6 223.9-1079.6-98.4-1853-98.4-1853-885 200.8-1449.9 375.1c-45 1021.9-348.4 1487.7-327.4 1819.7 20.9 332 209 737.8 209 737.8" fill="#f595ad"/><path d="M13204.9 11520.4c0-487.2-293.8-882.2-656.2-882.2-362.5 0-656.3 395-656.3 882.2s293.8 882.2 656.3 882.2c362.4 0 656.2-395 656.2-882.2" class="B"/><path d="M11848.8 11520.4c362.2 46.3 699.1 248.2 889.3 509 122.9-304.9 466.8-509 466.8-509s257.7 583.2-211 897.8c-447.1 300.2-1514 95.1-1145.1-897.8" class="C"/><path d="M12272.6 11332.1c-38.5 0-69.7 31.3-69.7 69.8s31.2 69.7 69.7 69.7 69.7-31.2 69.7-69.7-31.2-69.8-69.7-69.8m555.8 0c-38.5 0-69.7 31.3-69.7 69.8s31.2 69.7 69.7 69.7c38.6 0 69.8-31.2 69.8-69.7s-31.2-69.8-69.8-69.8"/><path d="M12951.3 11464.7c-11.4 0-22.6 5.9-28.8 16.4-17.2 29.1-38.1 46.5-62 51.8-41.4 9.1-82.3-18.5-82.7-18.7-15.2-10.4-36.1-6.7-46.6 8.5s-6.8 35.9 8.3 46.4c2.6 1.9 64.5 44.5 134.7 29.4 43.1-9.3 78.7-37.3 105.9-83.2 9.4-15.9 4.2-36.4-11.7-45.9-5.4-3.2-11.3-4.7-17.1-4.7m-811-3.4c-7.4 0-14.8 2.4-20.9 7.4-14.5 11.6-16.8 32.6-5.2 47.1 44 54.9 92.7 84.8 144.8 88.9 67.2 5.2 113.4-36.3 115.3-38 13.7-12.5 14.6-33.7 2.1-47.3-12.4-13.6-33.4-14.6-47.1-2.4-1 .9-28.4 24.1-66 20.8-32.6-2.8-65.2-24.4-96.9-63.9-6.6-8.3-16.3-12.6-26.1-12.6" class="C"/><path d="M12617.9 11310.3c90.2-65 118.3-91.7 153.1-113.4-24-80.5-150.3-120.5-186.3-111.2 88 43.3 100.4 102.1 100.4 102.1l-67.2 122.5" class="E"/><path d="M11990.4 11452.3c75.2-95.2 79-217.6 8.4-273.4-70.6-55.7-188.8-23.7-264 71.6-75.2 95.2-78.9 217.6-8.3 273.4 70.6 55.7 188.7 23.7 263.9-71.6" class="B"/><path d="M11924.5 11246.6c-2.9 0-5.9.5-8.7 1.7-11.4 4.8-16.7 17.9-11.9 29.3 15.9 37.7 16.3 68.1 1.1 90.3-23.6 34.2-79.1 44.7-119.4 43.4-12.3-.5-22.6 9.2-23 21.5-.4 12.4 9.2 22.7 21.5 23.1 54.2 1.8 124-13.7 157.7-62.7 16.8-24.5 30.9-67.4 3.2-133-3.6-8.5-11.8-13.6-20.5-13.6" class="E"/><path d="M12374.6 10966.6c-9.4 15.2 3.9 34.2 21.4 30.5 44.5-9.4 118.3-23.3 189.4-29.7 71-6.3 146.1-5.6 191.7-4.3 17.8.6 27.5-20.5 15.6-33.9-36.6-41.1-110-102-219-92.2-108.9 9.7-170.4 82.6-199.1 129.6" class="D"/><path d="M12679 1360.6c58.8 154.3 184.4 171.5 184.4 171.5 244.2-325.8 844-125.9 824.2-566.498h-1291.2c1.2 101.198 19.2 341.398 40.3 435.398l47.5-8.4 194.8-32" class="C"/><path d="M13649 847.902h-1213.5c-21.6 0-39.1 17.5-39.1 39.098v90.7H13688V887c0-21.598-17.4-39.098-39-39.098" class="F"/><path d="M9969.77 3255.8l-322.34-164.1 45.5-235.7 260.28-71.4 122.38 56.9-105.83 414.3" class="B"/><path d="M9722.45 2865.3c159.12 19.4 230.77-80.7 230.77-80.7-169.08-357.2 274.18-781.6-113.1-964.1L9255.33 2929c87.43 44.8 301.85 138.1 392.1 162.7l14.28-44.7 60.74-181.7" class="C"/><path d="M9721.63 1800.3l-549.6 1041.9c-9.78 18.5-2.68 41.5 15.85 51.3l77.86 41 585-1109-77.85-41c-18.53-9.8-41.48-2.7-51.26 15.8" class="F"/><path d="M11810.3 4856c-265.9 48.1-521.1 47.9-670.7 44.6 94.7 316.8 67.3 2272.3 667.5 2944.8h1510.6c534.7-917.5 332.9-2277 663.4-2833.9-129.1-62.4-491-218.6-964.8-266.5-524-52.8-756.5 29.7-1206 111" fill="#070635"/><path d="M12280.7 10297.4l-351.1 22.9s-455.2 960.8-629.9 1271.5c-119.1 498.7 50.1 1814.8 50.1 1814.8l-528.9 125.7s-242.2-1606.2-160.3-2059.4c21.6-119.6 681.1-1526.1 681.1-1526.1s223.1-394.6-81.6-2375.3c430.1-106.7 730.2-113.1 730.2-113.1l290.4 2839m511.3-.7l282.7-2838.3s128.6-43.6 611.8 100.1c-234 1182.6-165.9 1908.2-132.8 2135.5 6.9 47.1 21.7 92.5 44 134.5 101.3 191 435.8 843.4 744 1691.9-19.3 395.1-305.1 2011.9-305.1 2011.9l-500.4 26.7 152.7-1901.2s-535.5-1167.5-598.6-1360.9c-215.7-16.3-298.3-.2-298.3-.2" class="I"/><path d="M5505.45 10456.5c452.07-112.9 1224.74-1169.2 1297.08-1961.2-248.05-51.3-531.46 146.4-531.46 146.4l-614.14 883.4-151.48 931.4" class="E"/><path d="M5074.07 12741.3c-207.56 341.5-750.55 512.3-946.3 131.1-195.74-381.2-248.9-657.6-733.15-447-385.62 167.7-903.07-70.4-1069.27-635.4-212.64-722.7 371-588.9 149.83-911.7-221.16-322.9-402.5-663 110.67-826.8s1041.8 150.7 1154.26 756c112.47 605.4 425.1 279 620.1 537.3 277.3 367.4 713.86 1396.5 713.86 1396.5" class="F"/><path d="M5942.6 1395l242.13 953.7-600.75 82.7L5532.6 1416l410-21M4509.12 2436.8h-627.24c20.6-150.3 102.88-964.2 102.88-964.2 53-120.3 520.45-92.8 520.45-25.2-35.35 146.6.97 970.6 3.9 989.4" class="B"/><path d="M5534.76 2064.1l618.58-91.3 428.93 2565c-88.34 973.4-945.3 3044.4-945.3 3044.4l-965.9-338.3-23.55-913.3 1163.2-1969.4c-151.62-380.9-255.34-1612.3-275.96-2297.1" class="L"/><path d="M5056.63 7513.5c-8.83 60.2-11.78 79-61.84 109l-927.6 263.1-220.86-218c-209.08-759.2-79.5-1815.3 85.4-2653.4-241.48-725.4-147-2220.8-49.84-2923.6h659.63c38.28 469.8 26.28 1341.3 29.23 1762.2h0c85.4 338.3 167.85 699.1 241.48 1078.7 94.24 484.8 212.02 954.6 244.4 1394.4 29.45 417.2 38.3 864.4 0 1187.6" class="I"/><g class="B"><path d="M4309.12 11809.6c-117.05-490.5 100.3-962.6 485.5-1054.5 385.17-91.9 792.32 231.1 909.37 721.5 117.05 490.5-100.32 962.6-485.5 1054.5-385.2 91.9-792.33-231.1-909.38-721.5m-422.55-1237.4c-218.07-143.1-1137.2-1339-630.7-2323.9 23.42-13 429.13 674.5 429.13 674.5l478.86 947.9-277.3 701.5"/><path d="M4348.05 11194.3l575.88-327.1s51.1-233.1 76.6-308.8c52.62-156.1-149.04-224.3-319.52-127.1-170.48 97.1-280.86 227.2-280.86 227.2l-52.1 535.8"/></g><path d="M5760.17 11630.7c-130.92 43.1-191.6 243.9-246.56 398.3-274.4-551.7-1286.28-473-1329.1-364.2-88.77 642.7 192.47 1110.4 883.88 1089.4 948.1-28.8 691.78-1123.5 691.78-1123.5" class="C"/><path d="M5495.3 11390.6c12.45-35.9 51.68-54.9 87.62-42.5 35.94 12.5 54.98 51.7 42.52 87.6-12.45 36-51.68 55-87.62 42.6-35.93-12.5-54.98-51.7-42.52-87.7m-497.35 141.1c13.5-38.9 55.95-59.5 94.85-46 38.9 13.4 59.5 55.9 46.04 94.8-13.5 38.9-55.95 59.5-94.86 46.1-38.9-13.5-59.5-56-46.03-94.9"/><path d="M5682.93 11526.4a29.98 29.98 0 0 1 7.96 3c12.4 7.2 16.64 23.1 9.48 35.5-55.6 96.2-158.16 90.8-162.5 90.5-14.25-1-25.12-13.3-24.2-27.6.92-14.2 13.2-25 27.4-24.2 3.37.2 75.3 3 114.4-64.7 5.7-9.8 16.88-14.5 27.46-12.5" class="C"/><path d="M5357.36 11348c11.66-52.9 18.76-104.4 37.47-142.7 6.3-12.9 1.1-28.7-11.5-35.7-51.98-28.6-146.72-20-202.75-11.4-8.18 1.3-8.25 13.1-.08 14.4 69.08 11.6 106.22 28.6 124.12 39.5 8.9 5.4 14.54 14.7 15.43 25.1 2.05 23.8 6.67 72.1 13.26 110.4 2.28 13.2 21.15 13.5 24.04.4" class="E"/><path d="M4446 11572.1c61.4-101.4 43.9-224.4-39.1-274.6-83-50.3-200.06-8.8-261.47 92.6-61.42 101.4-43.92 224.4 39.08 274.7 83 50.2 200.07 8.7 261.48-92.7" class="B"/><path d="M4345.35 11383.7c3.68 1.2 7.14 3.4 10.05 6.3 41.77 42.9 52 95.7 27.38 141.4-25.2 46.8-79.75 73.8-129.7 64.1-14.07-2.7-23.27-16.3-20.55-30.3 2.7-14.1 16.3-23.3 30.37-20.6 27.36 5.3 59.97-11.3 74.24-37.8 13.7-25.4 7-54-18.85-80.5-10-10.3-9.8-26.7.45-36.7 7.27-7.1 17.63-9 26.6-5.9" class="E"/><path d="M5780.32 7430.7s-237.63-281.4-277.76-302.5l-212.8 232.4-111.02-292.2c-49.37 0-1533.38 332.3-1533.38 332.3 3.04 133.8 128.8 567.2 332.38 1028.5-49.37 390.7-1.93 796.9-17.38 1022.1 119.86 604.2 34.35 836.2-73.8 1120.9l376.53 111.1 677.73-239 50.33 163.5s424.93-102 514.3-151.3l160.54-670-34.76-1423.5s53.38-573.2 149.1-932.3" class="M"/><g class="J"><path d="M4393.97 10758.7l-265.5-112.8c28.02-318.8 741.5-509.3 741.5-509.3l70.84 307.7-546.82 314.4"/><path d="M4940.8 10444.3l210.08-233.4s181.64 187.9 115.9 304c-65.74 116.1-306.53 194.4-306.53 194.4l-19.46-265"/></g><path d="M5103.7 10905.6c-16.58 2.1-32.85 5.8-48.8 11.1-117.65 38.8-172.15 148.8-174.4 153.4-7 14.4-1 31.8 13.42 38.8 14.38 7 31.7 1 38.72-13.4h0c.45-.9 46.74-93.1 140.98-123.9 61.4-20.1 130.82-10.3 206.32 29.2 14.2 7.4 31.7 1.9 39.13-12.3 7.4-14.2 1.9-31.7-12.28-39.2-71.48-37.3-139.56-51.9-203.08-43.7" class="E"/><path d="M5796.45 1410.4c62.84 165 197.12 183.3 197.12 183.3 261.06-348.2 902.14-134.5 880.92-605.5H5494.43c1.28 108.2 20.56 364.9 43.04 465.4l50.8-9 208.17-34.2" class="C"/><path d="M6833.22 862.5h-1297c-23.08 0-41.78 18.7-41.78 41.703v96.997H6875v-96.997c0-23.004-18.7-41.703-41.78-41.703" class="D"/><path d="M5288.23 7356.6l-50.48-132.9c-45.8 305.9-216.4 1586-120.12 1939.5 90.33 332-22.62 682-132 1020.5l-78.06 251.1 33.24 9.5 33.1 9.5c23.44-81.7 50.88-166.7 77.37-248.9 112.4-348.1 228.52-708.1 132.8-1059.9-83.03-305.1 44.27-1356 104.13-1788.4" class="J"/><path d="M4616.92 983.602l-85.16 329.498c-7.84 42.7-30.84 143.5-35.54 195.2-1.15 12.7-135.53 94.9-238.13 94.8-139-.3-265.66-80.8-268.22-96-16.4-97.4-16.9-212-43.47-306.9-19.77-70.5-73.48-235-73.48-235l744 18.403" class="C"/><path d="M4616.9 1006.3c-18.24-57.898-243.26 8.9-407.47 8.9-137.87-.1-316.25-53.497-336.52-32.7-34.46-60.898-6.08-187.098-6.08-187.098s143.68-7.402 316 0c172.32 7.5 371.46-3.504 446.47 18.8 47.32 79.098-12.4 192.097-12.4 192.097" class="D"/><path d="M4904.94 9232s-1187.62-1190.5-1649.08-983.7c-152.13 205.7 170.93 618.4 473.47 756.7 301.33 137.7 807.15 354.8 807.15 354.8l368.46-127.8" class="B"/><path d="M5129.88 9636.4l493.5 380.8c10.73 8.2 24.38 11.6 37.7 9.3l336.12-60.9c9.6-1.7 29.26-60.3 21.5-66.2l-335.54-201.7c-1.6-1.2-3.5-1.9-5.5-2.1L5150.1 9605c-11.18-1.2-29.15 24.6-20.2 31.4" fill="#f9cd2d"/><path d="M5155.27 9599.9l469.3 358.3c10.73 8.2 24.4 11.6 37.7 9.3l347.28-58.7c9.6-1.6 12.62-13.9 4.86-19.8l-330.07-250.3c-1.6-1.2-3.5-2-5.5-2.2l-515.62-56.4c-11.18-1.2-16.9 13-7.95 19.8" fill="#f9f93a"/><path d="M4523.6 9353.3l277.28 138.9 230.82 248.5c70.22 20.4 206.87 79.4 234.75 77.4 27.87-2 74.93-18.5 74.93-18.5L5180.9 9674s65.4-30.2 157.17 6.5c91.76 36.8 262.82 149.3 328.68 108.9l20.98-27s57.88 44.8 92.67 13.8c107.58-96-586.4-509.5-586.4-509.5l-289.08-34.7-381.33 121.3" class="B"/><path d="M5675.65 9881.3c-19.54-13.4-43.76-12-54.1 3.1s-2.88 38.2 16.66 51.6 43.76 11.9 54.1-3.2c10.35-15.1 2.9-38.2-16.66-51.5" fill="#f9cd2d"/><g class="E"><path d="M6802.53 8495.3s-615.65-704-1044.17-803.4l-48.92 249.1 584.18 769.1 508.9-214.8"/><path d="M5680.5 7653.2c2 6 5.18 11.4 8.84 16.3l-3.1.9c-60.8 20.2-98.35 72-83.85 115.6 2.4 7.1 6.13 13.6 10.8 19.3-32.23 25-48.5 60.2-38.14 91.4 4.1 12.3 12.06 22.6 22.58 30.7-33.82 22.9-51.16 61.1-39.56 96 14.5 43.6 68.36 65 120.26 47.7 51.9-17.2 82.24-66.5 67.72-110.2-3.67-11-9.88-20.6-17.9-28.5 50.73-23.4 80.25-69.4 67.13-108.9-2.38-7.1-6.12-13.5-10.8-19.3 32.24-25 48.5-60.2 38.15-91.4-3.82-11.4-10.93-21.2-20.35-29 30.93-18.9 47.2-52.7 37-83.3-12.26-36.9-57.73-54.9-101.57-40.4-43.84 14.6-69.46 56.2-57.2 93.1"/></g><path d="M7524.7 16855.178H4035.895c-411.65 0-745.36-333.69-745.36-745.35v-1403.22c0-411.66 333.712-745.35 745.36-745.35h2406.382l-84.534-1566.704c-6.484-120.26 157.88-160.796 208.043-51.393l741.66 1618.097H7524.7c411.66 0 745.37 333.69 745.37 745.35v1403.22c0 411.66-333.712 745.35-745.37 745.35" class="K"/><path d="M7619.763 15854.105H3992.83c-140.76 0-254.885 114.146-254.885 254.895h0c0 140.75 114.126 254.895 254.885 254.895h3626.932c140.8 0 254.895-114.146 254.895-254.895h0c0-140.75-114.106-254.895-254.895-254.895m.038-755.405H3992.84c-140.76 0-254.88 114.2-254.88 254.9h0c0 140.8 114.12 254.9 254.88 254.9H7619.8c140.78 0 254.9-114.1 254.9-254.9h0c0-140.7-114.1-254.9-254.9-254.9m97.36-755.4H5098.32c-87 0-157.53 70.5-157.53 157.5v194.8c0 87 70.53 157.5 157.53 157.5h2618.84c87 0 157.52-70.5 157.52-157.5v-194.8c0-87-70.53-157.5-157.52-157.5" class="D"/><path d="M41264.43 12705.253c-550.012 208.85-1716.87-147.97-1569.68-2228.186 146.93-2080.268 1646.916-1925.588 1646.916-1925.588s695.642 153.12 871.438 1451.018c175.536 1297.873-23.925 2351.53-948.673 2702.757" class="C"/><g class="B"><path d="M39139.234 10751.596c-46.103-130.984-460.066-203.572-491.28-166.57-219.708 564.085 11.766 1670.597 11.766 1670.597l206.02 93.574s71.795-856.477 273.494-1597.6"/><path d="M40169.73 9651.875c-385.9 123.22-1479.08 814.7-1528.005 952.883l457.147 244.882 1447.967-655.16c350.513-175.583 252.66-744.984-377.1-542.605m-1759.27 2618.203c94.184-19.8 209.35-5.08 262.285-83.62l193.137 165.812c-123.036 281.86-488.804 425.26-527.193 434.416-99.668 23.75-145.2 41.083-154.987 28.732-10.015-12.327-47.927-98.62 96.092-137.82 180.738-49.2 36.958-178.235-315.696 16.74-88.223 48.8-270.63 29.233-217.22-48.427 58.895-85.553 235.103-285.772 663.58-375.83"/><path d="M40478.828 10460.78l519.847 95.958 194.848-259.317-414.2-849.244-609.3 517.194 308.825 495.41"/></g><path d="M39842.303 8454.315c0 330.805-286.597 826.486-149.328 1160.498 100.322 268.6 267.353 719.622 472.358 794.85 96.473 35.5 195.768 60.244 316.36 93.522 0 0-37.46-220.117 103.914-231.484 272.485-21.86 415.655 327.444 415.655 327.444 147.02 14.06 820.8-207.34 820.533-262.684-1.54-433.36-353.82-1065.64-469.023-1534.253-45.158-505.996 62.86-776.197 63.63-833.798 0 0-956.776-319.695-1599.244 34.1 0 0 25.145 228.302 25.145 451.806" class="I"/><g class="B"><path d="M40610.413 10885.27l421.903 63.235-33.48-391.745s-80.806-177.47-174.702-189.48l-345.125 93.544 131.404 424.445"/><path d="M41422.695 11451.653c-108.798-454.99-486.915-754.476-844.14-668.916-357.48 85.56-559.022 523.784-449.97 978.8 109.053 454.99 487.17 754.476 844.394 668.916 357.48-85.56 558.768-523.784 449.715-978.8"/></g><path d="M40296.275 11642.015c-15.828-31.606-54.16-44.467-85.817-28.713-31.656 15.73-44.516 54.087-28.688 85.694 15.58 31.582 54.16 44.442 85.57 28.713 31.656-15.73 44.516-54.112 28.936-85.694M40798 11518.18c-17.027-34.205-58.593-48.127-92.898-31.1-34.054 17.052-48.077 58.593-30.8 92.773 17.027 34.205 58.343 48.102 92.648 31.075 34.054-17.027 48.077-58.543 31.05-92.748"/><path d="M40874.522 11575.476c-4.77 2.36-8.534 6.25-11.044 11.395-34.638 74.823-128.26 89.38-129.264 89.53-13.052 1.933-22.34 14.106-20.33 27.233s14.056 22.238 27.108 20.38c4.77-.678 120.228-18.047 166.16-116.915 5.522-12.048.25-26.33-11.797-31.927-6.777-3.213-14.558-2.836-20.833.3m-717.727 159.162c-2.227 1.163-4.454 2.673-6.434 4.628-9.404 9.453-9.156 24.673.247 34.002 73.25 72.533 163.824 42.44 167.537 41.13 12.62-4.33 19.303-18.016 14.848-30.587-4.207-12.522-17.818-19.18-30.44-14.922-2.97.965-66.57 21.16-118.3-29.82-7.424-7.45-18.56-8.9-27.47-4.43" class="C"/><path d="M40337.462 11503.066c-35.192-36.085-65.924-73.26-99.38-94.35-11.4-7.113-14.87-22.107-8.426-33.73 27.014-47.956 106.073-87.436 154.4-108.006 7.187-3 12.887 6.245 7.187 11.3-48.823 42.85-69.89 74.4-78.81 91.748-4.213 8.625-4.213 18.736 0 27.36 10.16 19.802 30.236 60.15 43.62 93.582 4.71 11.524-10.16 21.016-18.588 12.094" class="E"/><path d="M41250.914 11448.8c-86.952-67.573-112.45-179.947-57.118-250.988 55.333-71.09 170.334-73.922 257.286-6.35 86.952 67.547 112.45 179.922 57.118 250.988s-170.59 73.896-257.286 6.35" class="B"/><path d="M41300.246 11218.396c-3.05 1.627-6.1 4-8.388 7.066-33.296 44.378-36.6 94.22-8.388 133.338 28.72 40.083 82.097 58.408 126.83 43.6 12.71-4.168 19.57-17.767 15.25-30.4-4.067-12.607-17.792-19.444-30.246-15.276-24.655 8.108-56.426-3.304-72.947-25.95-15.504-21.782-12.71-48.903 7.88-76.378 7.88-10.624 5.846-25.697-4.83-33.678-7.625-5.668-17.284-6.227-25.163-2.313" class="E"/><path d="M40732.34 11140.23c9.998 13.572-1 32.57-17.747 30.57-42.742-5.1-113.23-12.048-180.466-12.048-67.487 0-137.974 6.95-180.716 12.048-16.747 2-27.495-16.997-17.497-30.57 30.994-41.767 94.982-105.155 198.213-105.155s167.22 63.388 198.213 105.155" class="D"/><path d="M41431.525 11491.905c-426.334 57.108-1023.202 491.69-1072.218 714.7 82.46 267.9 522.068 402.567 770.2 278.445 248.142-124.096 482.753-656.02 302.008-993.155" class="C"/><path d="M40215.193 2015.406c28.367 281.796-116.984 2426.804-116.984 2426.804-411.453 1885.705-249.784 3235.59-249.784 3235.59l706.926-49.68 278.402-1065.6-132.047-1779.515s49.706-136.992 75.814-246.596c141.837-593.983.502-1303.897-86.86-1777.205-40.417-219.182-103.428-680.1-105.185-784.793l177.485-229.598s-642.66-711.3-741.318-715.7c-192.296-8.7-135.56 181.597-135.56 181.597 264.093 271.3 321.08 724 329.112 804.706" class="B"/><path d="M40773.892 1492.8l-35.2-457.002-82.193-3.697-41.473 424.4c-218.678-55.8-375.272-452.598-375.272-452.598-150.56-54-533.373-91-669.607-20.802-32.927 133.502 316.455 227.098 316.455 227.098 31.42-37.4 217.924-65.996 284.03-25.995 244.065 207.596 362.955 509.495 414.734 790.194 0 0 385.326-26.897 188.515-481.597" class="F"/><path d="M40454.284 7540.584l995.556 137.194c381.11-861.8 505.26-2362.38 608.673-2896.877 414.968-695.997 546.73-2806.505 546.73-2806.505l177.694-229.597s-642.794-711.3-741.483-715.698c-192.13-8.698-135.698 181.597-135.698 181.597 264.31 271.302 315.754 631.702 332.814 711.003 25.722 119.2-806.052 2460.48-806.052 2460.48l-88.716 222.21c-1015.767 1677.8-1182.436 2946.196-1182.436 2946.196l292.92-10" class="B"/><path d="M42794.006 1492.803l-35.342-457-82.025-3.7-41.672 424.4c-218.646-55.8-375.312-452.6-375.312-452.6-150.6-54-533.296-90.998-669.4-20.8-32.968 133.498 316.233 227.097 316.233 227.097 31.65-37.397 218.12-65.995 284.32-25.995 243.966 207.598 362.652 509.496 414.6 790.197 0 0 385.334-26.9 188.58-481.6" class="F"/><path d="M42305.672 4878.804c-99.405 332.71-58.397 2677.897-936.175 3325.51l-1508.73-122.8c-349.087-565.105-220.872-2035.526-103.3-3245.624 710.112-253.6 1274.88-355.3 2548.203 42.903" class="I"/><g class="B"><path d="M37967.4 10242.806c95.897-5.867 207.816 25.518 271.433-44.485l167.054 192.218c-162.813 260.9-545.694 349.423-585.042 352.863-102.023 8.977-149.382 19.51-157.393 5.867s-32.987-104.568 115.218-122.357c185.903-22.337 62.44-170.965-314.787-29.476-94.483 35.437-272.14-10.556-207.816-79.57 70.686-76.058 274.26-248.413 711.334-275.062"/><path d="M39907.944 9674.107c89.81-127.797-115.086-554.104-169.56-558.594-659.84 168.604-1520.405 1105.263-1520.405 1105.263l49.322 249.728s830.628-495.285 1640.644-796.397"/><path d="M41682.148 9657.093c-396.557-224.7-1802.817-599.277-1954.22-534.093l146.99 564.815 1647.258 695.287c412.918 155.48 808.437-360.46 159.973-726.01"/></g><path d="M37596.75 15737.005c-27.02 0-52.857 16.33-63.286 43.14-55.227 139.846-118.276 250.016-177.77 310.268-26.547 26.76-26.073 69.9.474 96.35 26.784 26.43 69.923 26.168 96.47-.616 73.24-74.07 144.823-197.183 207.636-356.015 13.748-34.985-3.555-74.57-38.398-88.364-8.296-3.247-16.592-4.764-25.125-4.764zm169.474-752.964c-35.317 0-65.182 27.187-68.027 62.93-9.244 121.832-28.206 247.314-56.175 372.962-8.296 36.74 14.933 73.147 51.672 81.324s73.004-14.956 81.3-51.696c29.4-131.953 49.302-263.906 59.02-392.16 3.08-37.545-25.125-70.28-62.575-73.147a68.51 68.51 0 0 0-5.215-.213zm412.2-321.717c-15.407 0-30.814 5.143-43.376 15.715-96.707 80.186-201.947 130.72-313.35 150.1-36.976 6.47-61.864 41.764-55.464 78.835 6.637 37.047 41.717 61.864 78.93 55.417 134.868-23.537 261.678-83.955 376.873-179.524 28.917-24.035 32.947-66.984 8.77-95.925-13.274-16.26-32.7-24.627-52.383-24.627zm-1045.3-86.586c-16.592 0-33.42 6.115-46.694 18.488-27.258 25.765-28.68 68.904-2.844 96.304 93.4 99.338 216.17 180.828 345.585 229.395 35.08 13.226 74.426-4.622 87.7-39.844 13.036-35.222-4.74-74.498-39.82-87.724-110.455-41.4-214.746-110.715-294.15-195.144-13.5-14.27-31.525-21.475-49.776-21.475zm502.97-341.106c-13.5 0-27.02 3.958-38.872 12.207-30.814 21.475-38.398 63.95-17.066 94.835 55.7 80.2 93.4 192.23 111.877 332.952 4.978 37.308 39.1 63.57 76.323 58.688 37.45-4.883 63.76-39.086 58.783-76.394-21.332-162.553-66.842-294.8-135.105-393.038-13.274-19.057-34.37-29.25-55.938-29.25zm-334.445-172.935c-19.436 0-39.82.996-60.205 2.94-235.368 22.54-298.654 146.506-315.246 218.397-8.533 36.644 14.222 73.265 50.724 81.798 36.74 8.557 73.478-14.222 81.774-50.9 18.725-80.234 116.854-106.093 195.784-113.63 16.118-1.564 32-2.347 47.168-2.347l5.7.047c37.687.427 68.5-29.676 68.975-67.292s-29.628-68.5-67.316-68.975zm1262.17-52.407c-34.606 0-64.234 26.168-67.8 61.27-8.06 79.712-36.502 165.066-84.382 253.7-14.222 26.002-28.68 51.46-43.613 75.635-19.673 32.093-9.48 74.024 22.518 93.673 32 19.673 73.952 9.6 93.626-22.494 16.118-26.24 32-53.83 47.168-81.988 56.65-104.505 90.307-207.043 100.262-304.77 3.792-37.427-23.466-70.847-60.916-74.664a66.77 66.77 0 0 0-6.874-.356zm-362.65-641.988a68.35 68.35 0 0 0-53.805 26.24c-23.23 29.676-17.777 72.507 11.85 95.64 114.72 89.43 197.443 174.404 253.145 259.782 20.384 31.548 62.575 40.484 94.1 19.958 31.762-20.527 40.532-62.74 20.147-94.3-63.997-98.248-156.912-194.054-283.484-292.918-12.562-9.694-27.258-14.4-41.954-14.4zm-653.957-415.224a68.01 68.01 0 0 0-58.31 33.113c-19.436 32.26-9.007 74.118 23.23 93.46l134.394 79.76 198.155 118.276c32.236 19.602 73.952 9.505 93.626-22.6 19.673-32.117 9.48-74.047-22.518-93.673l-333.497-198.63c-10.903-6.6-22.992-9.718-35.08-9.718zm-602.286-478.58c-13.5 0-27.02 4.006-38.872 12.302-31.05 21.57-38.398 64.045-16.83 94.882 65.182 93.34 160.94 185.948 292.965 283.13 30.102 22.328 72.767 15.88 95.048-14.4s15.88-72.957-14.222-95.285c-119.7-88.245-205.502-170.517-262.152-251.533-13.274-18.938-34.37-29.083-55.938-29.083zm39.584-726.37c-24.65 0-48.6 13.345-60.68 36.692-54.516 105.12-96.944 214.344-125.86 324.632-5.215 19.507-9.48 39.18-12.562 58.45-5.7 37.166 19.673 72.08 56.65 77.982 37.213 5.926 72.056-19.436 77.982-56.602 2.37-14.862 5.7-30.08 9.48-45.248 26.547-100.5 65.182-200.193 115.195-296.33 17.303-33.373 4.504-74.52-28.917-91.872-10.192-5.238-20.858-7.703-31.288-7.703zm488.04-594.843c-15.644 0-31.525 5.357-44.324 16.38-104.766 89.738-199.103 184.74-280.64 282.37-24.177 28.894-20.384 71.867 8.533 95.972s72.056 20.218 95.996-8.675c76.797-91.8 165.682-181.35 264.76-266.158 28.68-24.46 32-67.482 7.585-96.067-13.5-15.74-32.7-23.82-51.9-23.82zm648.506-421.007c-9.955 0-19.9 2.18-29.4 6.755-79.64 38.327-204.317 103.13-345.348 194.267-31.525 20.432-40.532 62.6-20.147 94.218 20.384 31.596 62.575 40.626 94.337 20.195 134.868-87.297 254.093-149.256 330.18-185.877 33.895-16.307 48.116-57.005 31.762-90.924-11.614-24.4-36.028-38.635-61.4-38.635M22931.7 16193.16c-3.105 0-6.2.14-9.315.565-37.26 5.222-63.37 39.52-58.3 76.92 3.528 24.84 5.222 51.516 5.222 79.46 0 11.997-.282 24.417-.988 36.978-1.835 37.543 27.1 69.582 64.642 71.416 37.684 1.976 69.582-26.958 71.416-64.5.847-14.82 1.27-29.64 1.27-43.894 0-34.156-2.258-67.182-6.492-98.233-4.658-34.014-33.873-58.714-67.464-58.714zm-616.354-422.57c-34.58 0-64.36 26.252-67.747 61.537-3.528 37.543 23.994 70.7 61.395 74.38 159.9 15.243 280.16 45.588 367.667 92.728 33.027 17.925 74.38 5.504 92.305-27.663 17.784-33.168 5.363-74.38-27.663-92.305-103.878-55.9-240.924-91.317-419.324-108.395-2.258-.282-4.375-.282-6.634-.282zm-408.456-12.703h-.565l-281.15 5.787-128.578 3.246c-37.543.847-67.323 32.04-66.476 69.582.988 37.684 32.04 67.464 69.723 66.618l128.86-3.246 278.9-5.787c37.825-.423 67.888-31.192 67.606-68.876-.423-37.402-30.9-67.323-68.3-67.323zm-1225.087-18.5c-33.3 0-62.383 24.417-67.182 58.3-5.504 37.26 20.183 71.84 57.585 77.344l42.342 5.504c112.206 13.408 234.3 21.312 373.454 24.558 37.402.706 68.735-28.933 69.582-66.618.847-37.543-28.933-68.735-66.476-69.582-134.788-3.105-252.64-10.868-360.47-23.57l-38.813-5.222c-3.387-.423-6.634-.706-10.02-.706zm-618.048-449.95c-4.234 0-8.6.423-12.844 1.27-37.12 7.057-61.254 42.765-54.056 79.744 28.65 148.902 120.25 275.22 264.353 365.4 31.897 20.042 74.098 10.303 94-21.594s10.303-73.957-21.594-93.857c-111.5-69.723-181.505-165-202.958-275.786-6.35-32.603-34.86-55.185-66.9-55.185zm347.202-696.52c-14.537 0-29.357 4.658-41.918 14.396-123.78 96.962-220.318 206.063-286.794 324.196-18.348 32.885-6.775 74.38 25.97 92.87 32.885 18.348 74.38 6.775 92.87-25.97 56.738-101.056 143.82-199.147 251.933-283.7 29.64-23.288 34.86-66.053 11.573-95.692-13.267-17.22-33.3-26.1-53.633-26.1zm738.157-341.415c-7.48 0-15.102 1.27-22.44 3.8l-30.204 10.444-261.248 91.458c-33.027 11.573-65.63 24.135-97.386 37.26-34.72 14.537-51.092 54.48-36.555 89.2 14.396 34.72 54.34 51.092 89.06 36.696 29.357-12.28 59.56-23.994 90.188-34.72l290.887-101.62c35.708-12.42 54.34-51.233 42.06-86.8-9.88-28.087-36.273-45.73-64.36-45.73zm767.1-283.915c-8.892 0-17.925 1.75-26.675 5.448-101.902 43.245-222.012 89.764-377.97 146.36-35.426 12.844-53.633 51.94-40.8 87.365 12.844 35.285 51.94 53.633 87.224 40.8 158.358-57.444 280.725-104.866 384.886-149.1 34.58-14.707 50.67-54.705 36-89.34-11-25.94-36.273-41.523-62.666-41.523zm327.442-498.757c-24.135 0-47.423 12.815-59.843 35.468-18.066 33.012-5.928 74.408 27.1 92.46 63.795 34.86 101.902 71.134 101.902 97.005 0 11.277-7.48 43.217-77.485 96.666-29.92 22.85-35.708 65.6-12.703 95.5 22.723 29.88 65.488 35.6 95.4 12.773 88.212-67.38 130.977-134.407 130.977-204.948 0-82.185-56.456-153.023-172.754-216.592-10.444-5.66-21.594-8.34-32.603-8.34" class="C"/><path d="M43226.756 14376.963l-326.403 459.53-559.316-69.63c-54.58-6.782-90.517 55.013-57.823 99.03l336.13 452.37-238.858 510.4c-23.237 49.7 24.318 103.028 76.197 85.52l534.187-179.954 411.516 385.1c40.26 37.477 105.65 8.673 105.108-46.204l-6.215-563.585 493.387-272.417c48.096-26.534 40.8-97.678-11.62-114.052l-537.7-168.362-106.73-553.453c-10.268-53.878-80.25-69.036-111.863-24.3M2568.54 4774.2l-257.84 363.1-441.92-55c-43.02-5.4-71.47 43.5-45.62 78.3l265.66 357.4-188.9 403.3c-18.4 39.2 19.25 81.4 60.32 67.5l422.03-142.2 325.17 304.3c31.66 29.6 83.37 6.8 82.9-36.5l-4.82-445.3 389.86-215.2c37.95-21 32.28-77.2-9.1-90.2l-425-133-84.24-437.3c-8.2-42.5-63.42-54.5-88.52-19.2m350.33 11941.093l-561.094 53.33-312.845-468.78c-30.446-45.68-100.752-32.597-112.693 20.955l-122.65 550.162L1267 17023.635c-52.8 14.857-62.057 85.706-14.813 113.647l485.3 286.612-22.474 563.245c-2.195 54.772 62.4 85.485 103.535 49.23l422.578-372.983 528.674 195.362c51.446 19.07 100.62-32.93 78.8-83.267l-224.123-517.12 349.212-442.4c33.994-43.13-.2-105.886-54.828-100.674m28954.314 1325.8l-473.127 33.868-254.007-400.668c-24.695-39.003-84.08-29.34-95.253 15.464l-114.068 460.544-459.604 117.792c-44.686 11.466-53.898 70.95-14.7 95.37l402.766 250.753-29.987 473.48c-2.94 46.078 50.762 73.203 86.237 43.452l362.783-305.553 441.18 174.845c42.922 17.012 85.257-25.734 67.814-68.52l-178.354-439.593 302.613-365.43c29.4-35.573 1.764-89.098-44.294-85.806" class="G"/><path d="M8689.468 18998.786c571.127 316.08 778.547-255.833 571.888-550.3-203.194-338.656-996-597.75-989.6-546.075-954.624 1451.694 260.892 1777.07 417.712 1096.376" fill="#e3eaff"/><path d="M20698.3 13319.618c571.18 316.092 778.57-255.838 571.838-550.256-203.174-338.65-995.974-597.82-989.518-546.158-954.6 1451.77 260.885 1777.087 417.68 1096.414m-5023.094 5577.42c114.613 583.582 635.092 392.72 719 76 117.003-340.254-167.2-1045.022-199.587-1010.243-1572.074 185.843-1085.895 1224.172-519.403 934.233M23559.55 6979.194l-1145.932-368.097c-149.463-48.108-310.02 34.505-358.04 183.895l-368.257 1145.903c-47.875 149.405 34.593 310.092 184.056 358.098l273.383 87.897c64.222 20.595 132.97-14.698 153.696-78.9 20.58-64.3-14.742-133.013-78.964-153.7l-273.383-87.795c-21.3-6.904-32.987-29.703-26.273-50.896l368.257-1145.903c6.86-21.208 29.63-32.9 50.94-26.098l1145.786 368.2c21.3 6.802 32.987 29.6 26.127 50.794l-368.1 1145.903c-6.86 21.193-29.63 33.002-50.94 26.098l-260.83-83.796c-64.222-20.6-132.97 14.698-153.55 78.9-20.726 64.3 14.596 133 78.818 153.7l260.83 83.796c149.463 48.006 310.165-34.505 358.186-183.997l368.1-1145.903c48.02-149.4-34.447-310.107-183.9-358.098m-889.964 2064.487l-445.83 295.902c-31.825 21.3-71.922 26.203-108.233 13.5-36.17-12.8-64.2-41.9-75.707-78.4l-154.358-488.8c-20.2-64.295 15.422-132.894 79.773-153.194 25.095-7.907 50.752-7.304 74.025.098 36.45 11.707 66.874 40.307 79.212 79.604l48.65 153.993 432.1-1344.793c20.6-64.3 89.306-99.597 153.517-78.903 64.2 20.595 99.54 89.404 78.93 153.6L22404.2 8926.687l130.244-86.502c56.22-37.293 132.067-21.997 169.36 34.208 37.293 56.2 22 131.996-34.208 169.3" class="G"/><path d="M22402.72 4004.8c0-316.002-256.05-572.108-572.163-572.108-315.975 0-572.163 256.106-572.163 572.108s256.188 572.094 572.163 572.094c316.112 0 572.163-256.092 572.163-572.094m5074.353 11603.7c0-257.593-208.86-466.42-466.436-466.42s-466.436 208.826-466.436 466.42c0 257.576 208.86 466.385 466.436 466.385s466.436-208.8 466.436-466.385M22670.778 5265.707c-143.514 0-260.25-116.794-260.25-260.294 0-143.514 116.738-260.308 260.25-260.308s260.25 116.794 260.25 260.308c0 143.5-116.738 260.294-260.25 260.294zm0-682.094c-232.484 0-421.758 189.2-421.758 421.8 0 232.597 189.274 421.8 421.758 421.8 232.625 0 421.758-189.203 421.758-421.8 0-232.6-189.132-421.8-421.758-421.8" class="D"/><path d="M39141.6 18124.054c-234.335 0-424.932-190.523-424.932-424.712s190.596-424.712 424.932-424.712c234.09 0 424.687 190.523 424.687 424.712s-190.596 424.712-424.687 424.712zm0-1112.96c-379.482 0-688.345 308.74-688.345 688.247s308.863 688.272 688.345 688.272 688.1-308.766 688.1-688.272-308.62-688.247-688.1-688.247" class="G"/><path d="M15225.776 16814.195l274.73-3208.802c10.446-122.323-80.016-229.708-202.13-240.154l-5576.702-477.487c-122.124-10.446-229.54 80.016-240.007 202.34l-274.71 3208.802c-10.477 122.323 80.006 229.812 202.13 240.258l5576.64 477.382c122.218 10.446 229.603-80.016 240.05-202.34" class="L"/><path d="M15225.776 16814.195l15.147-177.373-2384.508-2042.506c-230.96-205.682-568.785-237.438-833.904-78.554l-2806.882 1681.9-8.67 101.222c-10.456 122.218 80.13 229.812 202.33 240.258l5576.23 477.382c122.323 10.446 229.812-80.12 240.258-202.34" class="I"/><path d="M32861.65 1875.8c-195.794-821.5-895.175-369.698-748.793-888.902 10.706-38.296 47.147-63.898 86.882-65.398l410.735-15.7c39.53-1.5 78.647 9.8 111.382 32.198 216.588 148.3 363.588 357.2 831.352 382.603-3.5 199.8 5.56 484.998-60.53 586.898l-631.028-31.7" class="J"/><path d="M33943.664 7640.905s-1194.044-1821.405-1358.98-2388c-164.935-566.487 179.9-1526.497 117.625-3461.3 373.274-96.902 870.9-13.6 870.9-13.6s299.488 2426.802-52.736 2999.8c527.793 805.6 1853.785 2564.2 1853.785 2564.2l-1430.596 298.902" class="F"/><path d="M34606.023 1611.002c-303.857-413.7-1062.312-169-1031.862-724.2l1627.482 15.8c-2.807 127.598-28.29 430.1-56.15 548.398l-539.47 160" class="J"/><path d="M34249.7 8009.1s-380.586-2971.607-292.86-3555.107c87.946-583.412 360.36-1040.093 369.813-2975.9 376.63-83 952.235-157.5 952.235-157.5s242.51 2334.808-256.582 2977.605c141.593 952.587 815.7 3348.786 815.7 3348.786L34249.7 8009.1" class="C"/><path d="M32298.927 9317.293l-464.392 520.583c-10.108 11.317-24.38 17.82-39.443 18.017l-382.336 2.3c-10.9.198-44.596-60.214-37.262-68.3l327.433-291.003c1.586-1.705 3.37-2.894 5.55-3.607l561.7-208.293c11.892-3.706 37.064 21 28.74 30.305" class="L"/><path d="M32263.566 9282.423l-442.303 490.8c-10.097 11.285-24.55 17.8-39.597 18.096l-393.994 6.99c-11.087.198-16.83-12.69-9.503-20.7l311.434-343.408c1.386-1.703 3.366-2.89 5.544-3.504l555.552-168.487c12.077-3.603 21.185 10.89 12.87 20.195" class="I"/><path d="M33137.248 8834.777l-319.988 156.802s-315.515 319.297-362.273 390.613c-70.137 35.597-202.89 124.986-232.774 128.402-29.885 3.395-91.077-5.814-91.077-5.814l148.203-168.492s-70.34-14.007-160.197 43.1c-89.654 57.004-248.224 209.8-325.883 180.202l-27.445-24.396s-48.994 52.39-95.346 32.893c-46.148-19.394 45.742-249.993 306.57-494.192 17.28-65.3 103.274-179.612 103.274-179.612l527.35-185.203 529.586 125.698" class="B"/><path d="M31749.05 9699.18c18.743-18.704 45.5-22.198 60.133-7.692 14.448 14.487 11.13 41.4-7.81 60.192-18.743 18.704-45.5 22.1-60.133 7.692-14.448-14.487-10.933-41.488 7.81-60.192" class="L"/><g class="B"><path d="M34626.976 11186.882c-95.107-122.986 648.338-256.767 748.015-1.1 99.677 255.635-71.602 958.774-71.602 958.774l-677.72-143.857s124.705-653.69 1.306-813.806"/><path d="M35451.66 12718.5c57.075-543.806-242.897-1020.996-669.873-1065.807-427.194-44.81-819.75 359.684-876.826 903.5-57.075 543.828 242.897 1020.974 670.09 1065.807 426.976 44.833 819.533-359.684 876.608-903.5"/></g><path d="M34157.366 12396.113c-15.095-42.097-61.427-63.942-103.566-48.848-42.14 15.116-63.942 61.448-48.848 103.545 15.095 42.076 61.427 63.942 103.566 48.827 42.14-15.095 63.942-61.448 48.848-103.524m530.734 115.92c-16.394-45.563-66.428-69.217-112.204-52.866-45.35 16.352-69.196 66.513-52.802 112.076 16.394 45.542 66.64 69.217 112.204 52.866 45.563-16.373 69.196-66.535 52.802-112.076"/><path d="M34312.004 12412.988l-41.054-284.244s83.8-88.33 222.62-27.277c-69.4-2.285-145.17 10.92-156.597 99.693l-24.97 211.83" class="E"/><path d="M34133.578 12580.94c-9-5.448-20.743-6.097-30.8-.712-.838.503-34.572 17.726-66.2 5.657-22.2-8.507-40.02-30.382-53-65.037-5.867-16.07-23.886-24.263-39.8-18.292-16.134 5.993-24.305 23.865-18.438 39.936 19.486 52.53 49.868 86.745 89.888 101.726 58.877 21.938 115.03-8.13 117.336-9.408 15.086-8.234 20.534-27.113 12.362-42.157-2.724-5.008-6.705-8.968-11.315-11.713m403.766 88.472c10.45-2.154 21.75 1.066 29.213 9.446.853.8 27.08 28.147 60.773 27.166 23.883-.704 47.978-15.48 71.434-43.97 11.088-13.22 30.493-15.055 43.714-4.115 13.434 10.918 15.14 30.493 4.265 43.714-35.824 43.18-75.7 65.528-118.347 66.487-62.692 1.365-105.98-45.505-107.685-47.488-11.515-12.73-10.45-32.37 2.132-43.863 4.265-3.838 9.382-6.3 14.5-7.378m755.63-296.298c-281.442 235.564-203.803 595.44-203.803 595.44-136.3-8.9-174.468-67.273-174.468-67.273-109.842 126-83.153 244.652-83.153 244.652-295.78 32.203-382.24-176.96-607.88-300.4-309.234-169.02-753.012-147.14-900.13 246.174-21.174 56.928 32.864 112.048 90.432 92.572 53.377-18.086 119.988-26.402 194.32-4.147 0 0-90.432 59.465-123.076 166.616-17.866 59.1 43.23 110.107 99.475 84.278 84.036-38.687 226.08-58.384 442.014 45.46 143.8 69.103 424.8 404.783 653.316 415.6 186.82 8.823 367.242-103.622 485.466-302.264 0 0 445.764 71.838 617.805-393.644 168.954-457.344-464.733-1163.84-464.733-1163.84s48.745 268.363-25.586 340.774" class="F"/><path d="M34346.277 11893.458c-17.513 11.384-13.242 38.187 7.048 43.164 51.9 12.686 136.902 35.347 215.284 64.692 78.168 29.345 157.19 68.152 204.605 92.65 18.58 9.654 39.51-7.667 33.745-27.83-17.727-62.044-64.5-163.577-184.53-208.535-119.816-44.98-221.904.812-276.152 35.86" class="D"/><path d="M35092.657 12693.444c-91.602-90.297-105.963-224.22-31.985-299.11 73.76-74.914 208.01-62.446 299.612 27.872 91.385 90.297 105.745 224.24 31.767 299.133-73.76 74.914-208.01 62.425-299.394-27.894" class="B"/><path d="M35181.47 12432.84c-4.116 1.408-7.798 3.77-10.83 7.04-44.84 46.92-55.238 104.346-27.944 153.605 27.944 50.45 87.298 79.023 141.453 67.975 15.163-3.12 24.91-17.958 21.88-33.165-3.25-15.228-17.98-25.02-33.36-21.922-29.46 6.044-64.986-11.568-80.8-40.096-15.163-27.424-8.232-58.53 19.496-87.558 10.614-11.243 10.398-29.05-1.083-39.77-7.798-7.582-19.063-9.596-28.8-6.11" class="E"/><path d="M33800.665 7422.79c530.17-108.18 1483.367-294.99 1987.636-98.397 190.595 273.917 239.074 1822.808 239.074 1822.808 55.12 1594.36-136.14 1830.9-567.358 2365.108-180.855-83.145-633.768-154.004-832.775-155.553 0 0-451.142-626.397-539.245-1081.257-89.2-461.192-99.393-1281.305-107.583-1750.886-9.297-521.713-112.232-773.206-179.748-1101.822" class="M"/><g class="J"><path d="M35522.918 11028.33c310.187-603.733 240.06-1272.34-661.703-2588.535-631.586 55.003-755.353 581.398-755.353 581.398l398.78 1475.576c225.33 822.05 882.638 795.76 1018.276 531.56"/><path d="M32766.046 9147.2l1352.1-107.898s579.807 105.802 742.99-599.483c-290.224-226-1039.418-310.8-2268.326 145.497 130.034 177 173.236 561.885 173.236 561.885"/></g><path d="M34631.28 11401.496l-12.862-363.683 914.93 383.564-110.742 294.207-791.325-314.09" class="D"/><path d="M31646.776 10725.888c0-290.16-235.118-525.414-525.375-525.414s-525.375 235.254-525.375 525.414c0 290.18 235.118 525.414 525.375 525.414s525.375-235.235 525.375-525.414" class="K"/><path d="M31079.12 10394.52h-.386c-25.5.116-49.456 12.924-63.752 34.156l-215.984 322.102c-23.762 35.373-14.296 83.264 20.864 107.007 35.547 23.704 83.457 14.296 107.026-21.077l152.812-227.672 258.68 377.49c24.15 35.14 72.06 44.105 107.22 20.034 34.967-24.07 44.047-72.06 19.898-107.18l-322.817-471.34c-14.49-20.98-38.25-33.518-63.56-33.518" class="D"/><path d="M31694.046 10121.892c0-83.143-67.47-150.498-150.498-150.498-83.22 0-150.693 67.355-150.693 150.498s67.47 150.556 150.693 150.556c83.027 0 150.498-67.413 150.498-150.556" class="K"/><path d="M31173.42 14596.15l21.052-1463.334c.957-55.77-43.635-101.567-99.328-102.37l-2543.097-36.803c-55.692-.804-101.433 43.674-102.4 99.443l-21.052 1463.334c-.957 55.788 43.635 101.548 99.328 102.37l2543.29 36.784c55.692.823 101.433-43.654 102.2-99.423" class="C"/><path d="M31173.417 14596.16l1.148-80.882-1146.765-849c-111.12-85.816-265.27-89.373-380.406-8.78l-1218.103 852.75-.765 46.188c-.765 55.732 43.797 101.556 99.453 102.36l2543.118 36.797c55.655.822 101.556-43.702 102.32-99.433" class="F"/><path d="M29469.585 12984.552c-49.538 18.568-80.454 27.354-87.686 102.91-7.05 75.572-1.266 171.846-64.363 140.423s-107.21-180.126-96.725-241.054c72.86-43.897 248.774-2.278 248.774-2.278" class="B"/></g></svg>