<?xml version="1.0" encoding="UTF-8"?>
<!DOCTYPE svg PUBLIC "-//W3C//DTD SVG 1.1//EN" "http://www.w3.org/Graphics/SVG/1.1/DTD/svg11.dtd">
<!-- Creator: CorelDRAW 2018 (64-Bit Evaluation Version) -->
<svg xmlns="http://www.w3.org/2000/svg" xml:space="preserve" width="960px" height="960px" version="1.1" style="shape-rendering:geometricPrecision; text-rendering:geometricPrecision; image-rendering:optimizeQuality; fill-rule:evenodd; clip-rule:evenodd"
viewBox="0 0 960 960"
 xmlns:xlink="http://www.w3.org/1999/xlink"
 enable-background="new 0 0 512 512">
 <defs>
  <style type="text/css">
   <![CDATA[
    .fil0 {fill:#AAAAAA}
   ]]>
  </style>
 </defs>
 <g id="Layer_x0020_1">
  <metadata id="CorelCorpID_0Corel-Layer"/>
  <g id="_3025564205952">
   <g>
    <g>
     <path class="fil0" d="M453.148 891.068c7.677,0 13.901,-6.224 13.901,-13.901 0,-7.676 -6.224,-13.901 -13.901,-13.901l-45.728 0c-7.677,0 -13.901,6.225 -13.901,13.901 0,7.677 6.224,13.901 13.901,13.901l45.728 0z"/>
     <path class="fil0" d="M842.463 255.43l-146.425 0 0 -130.97c0,-22.315 -18.154,-40.469 -40.469,-40.469l-450.568 0c-22.315,0 -40.469,18.154 -40.469,40.469l0 653.049c0,22.316 18.154,40.47 40.469,40.47l450.568 0c22.315,0 40.469,-18.154 40.469,-40.47l0 -156.065 146.425 0c34.41,0 62.405,-27.995 62.405,-62.406l0 -241.201c0,-34.411 -27.995,-62.407 -62.405,-62.407l0 0zm-174.227 522.079c0,6.987 -5.682,12.669 -12.667,12.669l-450.568 0c-6.985,0 -12.667,-5.682 -12.667,-12.669l0 -581.369 46.842 0c7.677,0 13.901,-6.224 13.901,-13.901 0,-7.677 -6.224,-13.9 -13.901,-13.9l-46.845 0 0 -43.879c0,-6.985 5.683,-12.668 12.668,-12.668l450.568 0c6.985,0 12.667,5.682 12.667,12.667l0 43.882 -364.06 0c-7.676,0 -13.9,6.224 -13.9,13.9 0,7.677 6.224,13.901 13.9,13.901l364.06 0 0 59.29 -226.521 0c-34.41,0 -62.406,27.995 -62.406,62.405l0 241.201c0,29.252 20.496,54.069 47.879,60.673l0 100.509c0,9.229 5.633,17.144 14.347,20.173 8.661,3.008 18.008,0.348 23.761,-6.936l86.824 -109.919c1.051,-1.331 2.626,-2.092 4.324,-2.092l111.797 -0.001 0 156.064 -0.003 0zm208.831 -218.473c0,19.081 -15.524,34.605 -34.604,34.605l-286.024 0c-10.256,0 -19.784,4.616 -26.14,12.664l-75.314 95.348 0 -94.129c0,-7.608 -6.116,-13.802 -13.723,-13.9 -18.834,-0.239 -34.154,-15.756 -34.154,-34.59l0 -241.201c0,-19.081 15.524,-34.604 34.605,-34.604l400.75 0c19.081,0 34.604,15.524 34.604,34.604l0 241.203z"/>
     <path class="fil0" d="M758.144 658.643c-7.676,0 -13.901,6.224 -13.901,13.9l0 222.732c0,18.662 -15.18,33.843 -33.843,33.843l-560.233 0c-18.662,0 -33.843,-15.181 -33.843,-33.843l0 -825.649c0,-18.662 15.181,-33.843 33.843,-33.843l560.232 0c18.662,0 33.843,15.181 33.843,33.843l0 134.704c0,7.677 6.224,13.901 13.901,13.901 7.677,0 13.9,-6.224 13.9,-13.901l0 -134.704c0,-33.992 -27.652,-61.644 -61.643,-61.644l-560.233 0c-33.991,0 -61.643,27.653 -61.643,61.644l0 825.649c0,33.991 27.653,61.644 61.643,61.644l560.232 0c33.992,0 61.644,-27.653 61.644,-61.644l0 -222.732c0.002,-7.676 -6.222,-13.9 -13.899,-13.9z"/>
    </g>
   </g>
  </g>
 </g>
</svg>
