<?xml version="1.0" encoding="UTF-8"?>
<!DOCTYPE svg PUBLIC "-//W3C//DTD SVG 1.1//EN" "http://www.w3.org/Graphics/SVG/1.1/DTD/svg11.dtd">
<!-- Creator: CorelDRAW 2018 (64-Bit Evaluation Version) -->
<svg xmlns="http://www.w3.org/2000/svg" xml:space="preserve" width="1000px" height="200px" version="1.1" style="shape-rendering:geometricPrecision; text-rendering:geometricPrecision; image-rendering:optimizeQuality; fill-rule:evenodd; clip-rule:evenodd"
viewBox="0 0 1000 200"
 xmlns:xlink="http://www.w3.org/1999/xlink">
 <defs>
  <style type="text/css">
   <![CDATA[
    .fil1 {fill:#3187E1}
    .fil0 {fill:#666666}
   ]]>
  </style>
 </defs>
 <g id="Layer_x0020_1">
  <metadata id="CorelCorpID_0Corel-Layer"/>
  <g id="_2989524642048">
   <path class="fil0" d="M683.643 166.321c4.423,-2.731 4.653,-12.838 5.773,-18.164l7.939 -37.322c1.458,-7.281 3.933,-10.984 10.692,-12.478 15.197,-3.36 5.965,21.793 3.991,31.059 -2.575,12.088 -4.891,24.612 -7.757,36.432l32.723 0.473c7.646,0 6.536,-9.29 8.654,-19.339l8.945 -41.584c2.126,-4.686 9.73,-9.258 16.255,-6.114 5.752,7.205 -8.172,54.25 -10.301,67.043l39.372 -0.075c2.422,-13.818 15.365,-60.754 12.907,-71.488 -2.436,-10.64 -14.877,-16.188 -27.613,-14.681 -12.886,1.525 -20.766,8.381 -29.543,13.474 -3.546,-5.258 -3.417,-8.749 -9.937,-11.824 -18.647,-8.794 -41.647,9.899 -46.612,11.92l-3.42 -12.392 -30.744 -0.104c-4.332,1.138 -9.829,36.505 -11.04,42.231 -2.916,13.779 -6.803,28.895 -9.032,42.829l38.748 0.104z"/>
   <path class="fil0" d="M869.875 109.882c2.823,-13.033 22.441,-20.366 18.39,0.989l-11.648 55.49 37.387 -0.473c1.148,-6.138 11.219,-57.447 13.348,-61.164 2.021,-3.527 9.216,-9.455 16.4,-4.938 4.223,7.564 -8.897,54.451 -10.872,66.548l38.912 -0.446c3.493,-7.841 15.06,-63.483 13.302,-71.243 -2.422,-10.69 -14.607,-16.114 -27.766,-14.532 -14.975,1.801 -20.056,9.336 -30.479,13.678 -2.437,-12.631 -13.044,-15.949 -27.778,-13.23 -14.128,2.607 -18.165,8.468 -27.299,13.416l-4.032 -12.74 -32.469 -0.054 -18.072 84.941 40.776 -0.236 11.9 -56.006z"/>
   <path class="fil0" d="M524.582 118.65l-36.997 -0.367c-2.308,12.279 -10.38,38.584 -24.823,34.261 -17.057,-5.103 -1.855,-79.021 13.074,-95.03 4.61,-4.943 15.581,-9.849 18.232,1.226 1.527,6.378 -0.434,21.664 -0.973,28.776l36.027 0.307 7.172 -37.446c-12.689,-3.614 -19.136,-10.465 -42.064,-11.694 -17.463,-0.937 -31.166,1.876 -44.697,8.531 -21.716,10.68 -38.595,34.419 -38.73,68.541 -0.241,61.098 59.936,58.567 99.572,42.723 9.181,-3.67 7.156,-6.637 9.423,-17.164 1.59,-7.382 3.465,-15.215 4.784,-22.664z"/>
   <path class="fil1" d="M354.044 31.932l-40.92 0.326 -28.197 134.054 40.755 -0.427 7.857 -37.325c3.954,3.684 8.466,13.867 11.241,19.15 3.179,6.053 7.046,12.196 9.3,18.638l44.766 -0.684c-4.874,-7.434 -26.923,-45.27 -29.106,-52.839l29.791 -23.65c3.588,-3.112 5.539,-3.907 8.931,-7.568 -6.513,-0.873 -21.506,-1.796 -26.743,0.508 -3.894,1.713 -34.435,28.901 -45.276,34.516l17.601 -84.699z"/>
   <path class="fil1" d="M208.74 166.174c2.329,-12.447 5.251,-24.88 7.901,-37.213 1.343,-6.253 2.528,-12.545 3.944,-18.742 1.364,-5.966 4.542,-10.409 9.853,-11.793 16.163,-4.211 6.478,22.581 4.584,31.53 -2.562,12.109 -5.677,24.306 -7.623,36.338l40.602 0.027c2.372,-13.778 15.719,-61.936 12.584,-72.865 -3.054,-10.645 -15.976,-15.352 -30.066,-13.097 -15.28,2.446 -18.487,9.059 -27.884,13.464 -6.137,-14.165 4.171,-13.702 -36.615,-12.535l-18.072 84.6 40.792 0.286z"/>
   <path class="fil0" d="M591.508 93.99c17.482,-5.606 5.875,56.762 -8.523,59.836 -13.644,2.913 -8.555,-23.178 -6.812,-32.176 2.23,-11.508 6.208,-24.733 15.335,-27.66zm47.878 35.072c7.23,-35.722 -11.552,-49.366 -45.123,-49.269 -30.877,0.091 -53.037,11.887 -59.073,38.202 -8.118,35.389 13.612,49.742 45.734,49.691 31.134,-0.051 52.994,-11.608 58.462,-38.624z"/>
   <polygon class="fil1" points="125.043,39.901 18.07,40.092 14.725,54.536 46.364,54.63 22.73,166.338 65.83,166.099 89.474,54.565 121.895,54.328 "/>
   <polygon class="fil1" points="168.234,81.23 127.323,81.288 109.268,166.24 149.805,166.054 "/>
   <path class="fil1" d="M149.392 40.405c-26.503,5.372 -20.877,39.907 8.008,33.465 24.761,-5.521 20.718,-39.287 -8.008,-33.465z"/>
  </g>
 </g>
</svg>
