<?xml version="1.0" encoding="UTF-8"?>
<!DOCTYPE svg PUBLIC "-//W3C//DTD SVG 1.1//EN" "http://www.w3.org/Graphics/SVG/1.1/DTD/svg11.dtd">
<!-- Creator: CorelDRAW 2018 (64-Bit Evaluation Version) -->
<svg xmlns="http://www.w3.org/2000/svg" xml:space="preserve" width="1024px" height="1024px" version="1.1" style="shape-rendering:geometricPrecision; text-rendering:geometricPrecision; image-rendering:optimizeQuality; fill-rule:evenodd; clip-rule:evenodd"
viewBox="0 0 1024 1024"
 xmlns:xlink="http://www.w3.org/1999/xlink">
 <defs>
  <style type="text/css">
   <![CDATA[
    .fil1 {fill:#1577B0}
    .fil0 {fill:#3DAEEB}
    .fil2 {fill:white}
   ]]>
  </style>
 </defs>
 <g id="Layer_x0020_1">
  <metadata id="CorelCorpID_0Corel-Layer"/>
  <g id="_2297653470144">
   <path id="XMLID_3_" class="fil0" d="M512 0c281.994,0 512,230.006 512,512 0,281.994 -230.006,512 -512,512 -281.994,0 -512,-230.006 -512,-512 0,-281.994 230.006,-512 512,-512z"/>
   <g>
    <path id="XMLID_6_" class="fil1" d="M512 661.662c-66.166,0 -118.153,-53.563 -118.153,-118.154 0,-66.166 53.562,-118.154 118.153,-118.154 66.166,0 118.153,53.563 118.153,118.154 0,66.166 -51.987,118.154 -118.153,118.154l0 0zm0 -469.465c-193.772,0 -351.311,159.114 -351.311,351.31 0,193.773 159.114,351.311 351.311,351.311 56.714,0 111.852,-12.603 162.265,-37.809 15.753,-7.877 22.055,-26.782 14.178,-42.536 -6.301,-11.027 -17.329,-17.329 -28.357,-17.329 -4.726,0 -9.452,1.576 -14.178,3.152 -40.96,20.48 -85.071,31.507 -130.757,31.507 -160.689,0 -289.871,-129.181 -289.871,-288.295 0,-159.114 129.182,-288.295 288.296,-288.295 159.113,0 288.295,130.756 288.295,288.295 0,47.261 -12.603,96.099 -34.658,137.058 -28.357,-22.055 -70.893,-67.742 -70.893,-135.483l0 -140.209c0,-17.329 -14.178,-31.508 -31.507,-31.508 -17.33,0 -31.509,14.178 -31.509,31.508l0 1.576c-31.507,-26.782 -74.042,-44.111 -118.153,-44.111 -100.824,0 -182.744,81.92 -182.744,182.744 0,100.825 80.344,182.745 181.169,182.745 59.865,0 111.853,-28.357 144.935,-74.043 36.234,67.742 99.249,100.824 102.4,102.4 4.726,3.151 9.453,3.151 15.754,3.151 9.452,0 20.48,-4.726 26.782,-14.178 40.96,-59.865 63.015,-127.607 63.015,-201.649 -3.151,-193.774 -160.69,-351.312 -354.462,-351.312z"/>
   </g>
   <path id="XMLID_7_" class="fil2" d="M512 863.311c-193.772,0 -351.311,-159.114 -351.311,-351.311 0,-193.772 159.114,-351.311 351.311,-351.311 192.197,0 351.311,157.539 351.311,351.311 0,72.468 -22.056,141.785 -63.015,201.649 -9.453,12.603 -26.782,17.329 -40.961,9.452 -4.726,-3.151 -129.182,-67.741 -129.182,-209.526l0 -140.209c0,-17.33 14.179,-31.508 31.509,-31.508 17.329,0 31.507,14.178 31.507,31.508l0 140.209c0,69.317 40.961,113.428 70.893,135.483 22.055,-40.96 34.658,-89.797 34.658,-137.058 0,-159.115 -129.182,-288.296 -288.296,-288.296 -159.113,0 -286.72,129.182 -286.72,288.296 0,159.114 129.182,288.296 288.296,288.296 45.686,0 91.372,-11.028 130.757,-31.509 15.754,-7.876 34.658,-1.575 42.535,14.179 7.877,15.753 1.576,34.658 -14.178,42.535 -47.262,25.207 -102.4,37.81 -159.114,37.81z"/>
   <g>
    <path id="XMLID_10_" class="fil2" d="M512 393.847c66.166,0 118.153,53.562 118.153,118.153 0,66.166 -53.562,118.153 -118.153,118.153 -64.591,0 -118.153,-53.562 -118.153,-118.153 0,-66.166 51.987,-118.153 118.153,-118.153l0 0zm0 -64.591c-100.824,0 -182.744,81.92 -182.744,182.744 0,100.824 81.92,182.744 182.744,182.744 100.824,0 182.744,-81.92 182.744,-182.744 0,-100.824 -81.92,-182.744 -182.744,-182.744z"/>
   </g>
  </g>
 </g>
</svg>
